<?xml version="1.0" standalone="no"?><svg version="1.1" xmlns="http://www.w3.org/2000/svg" width="904.9228515625" height="460.5"><svg x="363.83740234375" y="280.5" width="88.16259765625" height="147"><path d="M8,112.5L31.581298828125,112.5Q41.581298828125,112.5,41.581298828125,102.5L41.581298828125,36Q41.581298828125,26,51.581298828125,26L75.16259765625,26L51.581298828125,26Q41.581298828125,26,41.581298828125,36L41.581298828125,102.5Q41.581298828125,112.5,31.581298828125,112.5L8,112.5L8,112.5M8,108.5L18,112.5L8,116.5M65.16259765625,22L65.16259765625,30" fill="none" stroke="#3EA8DE" stroke-width="2"></path><text x="11" y="109.5" style="font-family: &quot;Open Sans&quot;, sans-serif; font-size: 14px; font-weight: normal; fill: rgb(215, 215, 217);">*</text><text x="64.15771484375" y="23" style="font-family: &quot;Open Sans&quot;, sans-serif; font-size: 14px; font-weight: normal; fill: rgb(215, 215, 217);">1</text></svg><svg x="363.83740234375" y="280.5" width="88.16259765625" height="180"><path d="M8,154L31.581298828125,154Q41.581298828125,154,41.581298828125,144L41.581298828125,36Q41.581298828125,26,51.581298828125,26L75.16259765625,26L51.581298828125,26Q41.581298828125,26,41.581298828125,36L41.581298828125,144Q41.581298828125,154,31.581298828125,154L8,154L8,154M8,150L18,154L8,158M65.16259765625,22L65.16259765625,30" fill="none" stroke="#3EA8DE" stroke-width="2"></path><text x="11" y="151" style="font-family: &quot;Open Sans&quot;, sans-serif; font-size: 14px; font-weight: normal; fill: rgb(215, 215, 217);">*</text><text x="64.15771484375" y="23" style="font-family: &quot;Open Sans&quot;, sans-serif; font-size: 14px; font-weight: normal; fill: rgb(215, 215, 217);">1</text></svg><svg x="663.953125" y="189.5" width="60.88427734375" height="52"><path d="M8,26L27.942138671875,26Q27.942138671875,26,27.942138671875,26L27.942138671875,26Q27.942138671875,26,27.942138671875,26L47.88427734375,26L27.942138671875,26Q27.942138671875,26,27.942138671875,26L27.942138671875,26Q27.942138671875,26,27.942138671875,26L8,26L8,26M8,22L18,26L8,30M37.88427734375,22L37.88427734375,30" fill="none" stroke="#3EA8DE" stroke-width="2"></path><text x="11" y="23" style="font-family: &quot;Open Sans&quot;, sans-serif; font-size: 14px; font-weight: normal; fill: rgb(215, 215, 217);">*</text><text x="36.87939453125" y="23" style="font-family: &quot;Open Sans&quot;, sans-serif; font-size: 14px; font-weight: normal; fill: rgb(215, 215, 217);">1</text></svg><svg x="361.93115234375" y="24.5" width="90.99169921875" height="84"><path d="M8,58L32.995849609375,58Q42.995849609375,58,42.995849609375,48L42.995849609375,36Q42.995849609375,26,52.995849609375,26L77.99169921875,26L52.995849609375,26Q42.995849609375,26,42.995849609375,36L42.995849609375,48Q42.995849609375,58,32.995849609375,58L8,58L8,58M8,54L18,58L8,62M67.99169921875,22L67.99169921875,30" fill="none" stroke="#3EA8DE" stroke-width="2"></path><text x="11" y="55" style="font-family: &quot;Open Sans&quot;, sans-serif; font-size: 14px; font-weight: normal; fill: rgb(215, 215, 217);">*</text><text x="66.98681640625" y="23" style="font-family: &quot;Open Sans&quot;, sans-serif; font-size: 14px; font-weight: normal; fill: rgb(215, 215, 217);">1</text></svg><svg x="180.08544921875" y="89.5" width="60" height="52"><path d="M8,26L27.5,26Q27.5,26,27.5,26L27.5,26Q27.5,26,27.5,26L47,26L27.5,26Q27.5,26,27.5,26L27.5,26Q27.5,26,27.5,26L8,26L8,26M18,22L18,30M47,22L37,26L47,30" fill="none" stroke="#3EA8DE" stroke-width="2"></path><text x="11" y="23" style="font-family: &quot;Open Sans&quot;, sans-serif; font-size: 14px; font-weight: normal; fill: rgb(215, 215, 217);">1</text><text x="36.2890625" y="23" style="font-family: &quot;Open Sans&quot;, sans-serif; font-size: 14px; font-weight: normal; fill: rgb(215, 215, 217);">*</text></svg><svg x="362.3681640625" y="24.5" width="90.5546875" height="240"><path d="M8,214L32.77734375,214Q42.77734375,214,42.77734375,204L42.77734375,36Q42.77734375,26,52.77734375,26L77.5546875,26L52.77734375,26Q42.77734375,26,42.77734375,36L42.77734375,204Q42.77734375,214,32.77734375,214L8,214L8,214M8,210L18,214L8,218M67.5546875,22L67.5546875,30" fill="none" stroke="#3EA8DE" stroke-width="2"></path><text x="11" y="211" style="font-family: &quot;Open Sans&quot;, sans-serif; font-size: 14px; font-weight: normal; fill: rgb(215, 215, 217);">*</text><text x="66.5498046875" y="23" style="font-family: &quot;Open Sans&quot;, sans-serif; font-size: 14px; font-weight: normal; fill: rgb(215, 215, 217);">1</text></svg><svg x="362.3681640625" y="245.5" width="89.6318359375" height="87"><path d="M8,26L32.31591796875,26Q42.31591796875,26,42.31591796875,36L42.31591796875,51Q42.31591796875,61,52.31591796875,61L76.6318359375,61L52.31591796875,61Q42.31591796875,61,42.31591796875,51L42.31591796875,36Q42.31591796875,26,32.31591796875,26L8,26L8,26M8,22L18,26L8,30M66.6318359375,57L66.6318359375,65" fill="none" stroke="#3EA8DE" stroke-width="2"></path><text x="11" y="23" style="font-family: &quot;Open Sans&quot;, sans-serif; font-size: 14px; font-weight: normal; fill: rgb(215, 215, 217);">*</text><text x="65.626953125" y="58" style="font-family: &quot;Open Sans&quot;, sans-serif; font-size: 14px; font-weight: normal; fill: rgb(215, 215, 217);">1</text></svg><svg x="363.83740234375" y="384" width="31" height="76.5"><path d="M8,26L18,26Q28,26,28,36L28,40.5Q28,50.5,18,50.5L8,50.5L18,50.5Q28,50.5,28,40.5L28,36Q28,26,18,26L8,26L8,26ZM18,22L18,30M8,46.5L18,50.5L8,54.5" fill="none" stroke="#3EA8DE" stroke-width="2"></path><text x="11" y="23" style="font-family: &quot;Open Sans&quot;, sans-serif; font-size: 14px; font-weight: normal; fill: rgb(215, 215, 217);">1</text><text x="11" y="47.5" style="font-family: &quot;Open Sans&quot;, sans-serif; font-size: 14px; font-weight: normal; fill: rgb(215, 215, 217);">*</text></svg><svg x="439" y="257"><rect x="0" y="0" width="188.08544921875" height="33" fill="#222"></rect><text x="10" y="19.75" style="font-family: &quot;Open Sans&quot;, sans-serif; font-size: 13px; font-weight: bold; fill: rgb(255, 255, 255);">film_user</text></svg><svg x="439" y="290"><rect x="0" y="0" width="188.08544921875" height="33" fill="#4B4C53"></rect><text x="10" y="19.75" style="font-family: &quot;Open Sans&quot;, sans-serif; font-size: 13px; font-weight: bold; fill: rgb(215, 215, 217);">id</text><text x="159.93115234375" y="19.75" style="font-family: &quot;Open Sans&quot;, sans-serif; font-size: 13px; font-weight: bold; fill: rgb(215, 215, 217);">int</text></svg><svg x="439" y="323"><rect x="0" y="0" width="188.08544921875" height="33" fill="#37383F"></rect><text x="10" y="19.75" style="font-family: &quot;Open Sans&quot;, sans-serif; font-size: 13px; fill: rgb(215, 215, 217);">email</text><text x="102.3515625" y="19.75" style="font-family: &quot;Open Sans&quot;, sans-serif; font-size: 13px; fill: rgb(215, 215, 217);">varchar(255)</text></svg><svg x="439" y="356"><rect x="0" y="0" width="188.08544921875" height="33" fill="#37383F"></rect><text x="10" y="19.75" style="font-family: &quot;Open Sans&quot;, sans-serif; font-size: 13px; fill: rgb(215, 215, 217);">login</text><text x="102.3515625" y="19.75" style="font-family: &quot;Open Sans&quot;, sans-serif; font-size: 13px; fill: rgb(215, 215, 217);">varchar(255)</text></svg><svg x="439" y="389"><rect x="0" y="0" width="188.08544921875" height="33" fill="#37383F"></rect><text x="10" y="19.75" style="font-family: &quot;Open Sans&quot;, sans-serif; font-size: 13px; fill: rgb(215, 215, 217);">birthday</text><text x="150.974609375" y="19.75" style="font-family: &quot;Open Sans&quot;, sans-serif; font-size: 13px; fill: rgb(215, 215, 217);">date</text></svg><svg x="439" y="422"><rect x="0" y="0" width="188.08544921875" height="33" fill="#37383F"></rect><text x="10" y="19.75" style="font-family: &quot;Open Sans&quot;, sans-serif; font-size: 13px; fill: rgb(215, 215, 217);">name</text><text x="102.3515625" y="19.75" style="font-family: &quot;Open Sans&quot;, sans-serif; font-size: 13px; fill: rgb(215, 215, 217);">varchar(255)</text></svg><svg x="222.08544921875" y="319"><rect x="0" y="0" width="149.751953125" height="33" fill="#222"></rect><text x="10" y="19.75" style="font-family: &quot;Open Sans&quot;, sans-serif; font-size: 13px; font-weight: bold; fill: rgb(255, 255, 255);">user_friends</text></svg><svg x="222.08544921875" y="352"><rect x="0" y="0" width="149.751953125" height="33" fill="#37383F"></rect><text x="10" y="19.75" style="font-family: &quot;Open Sans&quot;, sans-serif; font-size: 13px; font-weight: bold; fill: rgb(215, 215, 217);">id</text><text x="121.59765625" y="19.75" style="font-family: &quot;Open Sans&quot;, sans-serif; font-size: 13px; font-weight: bold; fill: rgb(215, 215, 217);">int</text></svg><svg x="222.08544921875" y="385"><rect x="0" y="0" width="149.751953125" height="33" fill="#4B4C53"></rect><text x="10" y="19.75" style="font-family: &quot;Open Sans&quot;, sans-serif; font-size: 13px; fill: rgb(215, 215, 217);">user_id</text><text x="123.86376953125" y="19.75" style="font-family: &quot;Open Sans&quot;, sans-serif; font-size: 13px; fill: rgb(215, 215, 217);">int</text></svg><svg x="222.08544921875" y="418"><rect x="0" y="0" width="149.751953125" height="33" fill="#4B4C53"></rect><text x="10" y="19.75" style="font-family: &quot;Open Sans&quot;, sans-serif; font-size: 13px; fill: rgb(215, 215, 217);">friend_id</text><text x="123.86376953125" y="19.75" style="font-family: &quot;Open Sans&quot;, sans-serif; font-size: 13px; fill: rgb(215, 215, 217);">int</text></svg><svg x="711.83740234375" y="166"><rect x="0" y="0" width="188.08544921875" height="33" fill="#222"></rect><text x="10" y="19.75" style="font-family: &quot;Open Sans&quot;, sans-serif; font-size: 13px; font-weight: bold; fill: rgb(255, 255, 255);">film_rating</text></svg><svg x="711.83740234375" y="199"><rect x="0" y="0" width="188.08544921875" height="33" fill="#4B4C53"></rect><text x="10" y="19.75" style="font-family: &quot;Open Sans&quot;, sans-serif; font-size: 13px; font-weight: bold; fill: rgb(215, 215, 217);">id</text><text x="159.93115234375" y="19.75" style="font-family: &quot;Open Sans&quot;, sans-serif; font-size: 13px; font-weight: bold; fill: rgb(215, 215, 217);">int</text></svg><svg x="711.83740234375" y="232"><rect x="0" y="0" width="188.08544921875" height="33" fill="#37383F"></rect><text x="10" y="19.75" style="font-family: &quot;Open Sans&quot;, sans-serif; font-size: 13px; fill: rgb(215, 215, 217);">name</text><text x="102.3515625" y="19.75" style="font-family: &quot;Open Sans&quot;, sans-serif; font-size: 13px; fill: rgb(215, 215, 217);">varchar(255)</text></svg><svg x="439.9228515625" y="1"><rect x="0" y="0" width="232.0302734375" height="33" fill="#222"></rect><text x="10" y="19.75" style="font-family: &quot;Open Sans&quot;, sans-serif; font-size: 13px; font-weight: bold; fill: rgb(255, 255, 255);">film</text></svg><svg x="439.9228515625" y="34"><rect x="0" y="0" width="232.0302734375" height="33" fill="#4B4C53"></rect><text x="10" y="19.75" style="font-family: &quot;Open Sans&quot;, sans-serif; font-size: 13px; font-weight: bold; fill: rgb(215, 215, 217);">id</text><text x="203.8759765625" y="19.75" style="font-family: &quot;Open Sans&quot;, sans-serif; font-size: 13px; font-weight: bold; fill: rgb(215, 215, 217);">int</text></svg><svg x="439.9228515625" y="67"><rect x="0" y="0" width="232.0302734375" height="33" fill="#37383F"></rect><text x="10" y="19.75" style="font-family: &quot;Open Sans&quot;, sans-serif; font-size: 13px; fill: rgb(215, 215, 217);">name</text><text x="146.29638671875" y="19.75" style="font-family: &quot;Open Sans&quot;, sans-serif; font-size: 13px; fill: rgb(215, 215, 217);">varchar(255)</text></svg><svg x="439.9228515625" y="100"><rect x="0" y="0" width="232.0302734375" height="33" fill="#37383F"></rect><text x="10" y="19.75" style="font-family: &quot;Open Sans&quot;, sans-serif; font-size: 13px; fill: rgb(215, 215, 217);">description</text><text x="138.86328125" y="19.75" style="font-family: &quot;Open Sans&quot;, sans-serif; font-size: 13px; fill: rgb(215, 215, 217);">varchar(1000)</text></svg><svg x="439.9228515625" y="133"><rect x="0" y="0" width="232.0302734375" height="33" fill="#37383F"></rect><text x="10" y="19.75" style="font-family: &quot;Open Sans&quot;, sans-serif; font-size: 13px; fill: rgb(215, 215, 217);">release_date</text><text x="194.91943359375" y="19.75" style="font-family: &quot;Open Sans&quot;, sans-serif; font-size: 13px; fill: rgb(215, 215, 217);">date</text></svg><svg x="439.9228515625" y="166"><rect x="0" y="0" width="232.0302734375" height="33" fill="#37383F"></rect><text x="10" y="19.75" style="font-family: &quot;Open Sans&quot;, sans-serif; font-size: 13px; fill: rgb(215, 215, 217);">duration</text><text x="206.14208984375" y="19.75" style="font-family: &quot;Open Sans&quot;, sans-serif; font-size: 13px; fill: rgb(215, 215, 217);">int</text></svg><svg x="439.9228515625" y="199"><rect x="0" y="0" width="232.0302734375" height="33" fill="#4B4C53"></rect><text x="10" y="19.75" style="font-family: &quot;Open Sans&quot;, sans-serif; font-size: 13px; fill: rgb(215, 215, 217);">rating_id</text><text x="206.14208984375" y="19.75" style="font-family: &quot;Open Sans&quot;, sans-serif; font-size: 13px; fill: rgb(215, 215, 217);">int</text></svg><svg x="0" y="66"><rect x="0" y="0" width="188.08544921875" height="33" fill="#222"></rect><text x="10" y="19.75" style="font-family: &quot;Open Sans&quot;, sans-serif; font-size: 13px; font-weight: bold; fill: rgb(255, 255, 255);">genre</text></svg><svg x="0" y="99"><rect x="0" y="0" width="188.08544921875" height="33" fill="#4B4C53"></rect><text x="10" y="19.75" style="font-family: &quot;Open Sans&quot;, sans-serif; font-size: 13px; font-weight: bold; fill: rgb(215, 215, 217);">id</text><text x="159.93115234375" y="19.75" style="font-family: &quot;Open Sans&quot;, sans-serif; font-size: 13px; font-weight: bold; fill: rgb(215, 215, 217);">int</text></svg><svg x="0" y="132"><rect x="0" y="0" width="188.08544921875" height="33" fill="#37383F"></rect><text x="10" y="19.75" style="font-family: &quot;Open Sans&quot;, sans-serif; font-size: 13px; fill: rgb(215, 215, 217);">name</text><text x="102.3515625" y="19.75" style="font-family: &quot;Open Sans&quot;, sans-serif; font-size: 13px; fill: rgb(215, 215, 217);">varchar(255)</text></svg><svg x="227.08544921875" y="0"><rect x="0" y="0" width="142.845703125" height="33" fill="#222"></rect><text x="10" y="19.75" style="font-family: &quot;Open Sans&quot;, sans-serif; font-size: 13px; font-weight: bold; fill: rgb(255, 255, 255);">film_genre</text></svg><svg x="227.08544921875" y="33"><rect x="0" y="0" width="142.845703125" height="33" fill="#37383F"></rect><text x="10" y="19.75" style="font-family: &quot;Open Sans&quot;, sans-serif; font-size: 13px; font-weight: bold; fill: rgb(215, 215, 217);">id</text><text x="114.69140625" y="19.75" style="font-family: &quot;Open Sans&quot;, sans-serif; font-size: 13px; font-weight: bold; fill: rgb(215, 215, 217);">int</text></svg><svg x="227.08544921875" y="66"><rect x="0" y="0" width="142.845703125" height="33" fill="#4B4C53"></rect><text x="10" y="19.75" style="font-family: &quot;Open Sans&quot;, sans-serif; font-size: 13px; fill: rgb(215, 215, 217);">film_id</text><text x="116.95751953125" y="19.75" style="font-family: &quot;Open Sans&quot;, sans-serif; font-size: 13px; fill: rgb(215, 215, 217);">int</text></svg><svg x="227.08544921875" y="99"><rect x="0" y="0" width="142.845703125" height="33" fill="#4B4C53"></rect><text x="10" y="19.75" style="font-family: &quot;Open Sans&quot;, sans-serif; font-size: 13px; fill: rgb(215, 215, 217);">genre_id</text><text x="116.95751953125" y="19.75" style="font-family: &quot;Open Sans&quot;, sans-serif; font-size: 13px; fill: rgb(215, 215, 217);">int</text></svg><svg x="198.83740234375" y="156"><rect x="0" y="0" width="171.53076171875" height="33" fill="#222"></rect><text x="10" y="19.75" style="font-family: &quot;Open Sans&quot;, sans-serif; font-size: 13px; font-weight: bold; fill: rgb(255, 255, 255);">film_likes</text></svg><svg x="198.83740234375" y="189"><rect x="0" y="0" width="171.53076171875" height="33" fill="#37383F"></rect><text x="10" y="19.75" style="font-family: &quot;Open Sans&quot;, sans-serif; font-size: 13px; font-weight: bold; fill: rgb(215, 215, 217);">id</text><text x="143.37646484375" y="19.75" style="font-family: &quot;Open Sans&quot;, sans-serif; font-size: 13px; font-weight: bold; fill: rgb(215, 215, 217);">int</text></svg><svg x="198.83740234375" y="222"><rect x="0" y="0" width="171.53076171875" height="33" fill="#4B4C53"></rect><text x="10" y="19.75" style="font-family: &quot;Open Sans&quot;, sans-serif; font-size: 13px; fill: rgb(215, 215, 217);">film_id</text><text x="145.642578125" y="19.75" style="font-family: &quot;Open Sans&quot;, sans-serif; font-size: 13px; fill: rgb(215, 215, 217);">int</text></svg><svg x="198.83740234375" y="255"><rect x="0" y="0" width="171.53076171875" height="33" fill="#4B4C53"></rect><text x="10" y="19.75" style="font-family: &quot;Open Sans&quot;, sans-serif; font-size: 13px; fill: rgb(215, 215, 217);">liked_user_id</text><text x="145.642578125" y="19.75" style="font-family: &quot;Open Sans&quot;, sans-serif; font-size: 13px; fill: rgb(215, 215, 217);">int</text></svg></svg>